<svg width="512" height="512" viewBox="0 0 512 512" fill="none" xmlns="http://www.w3.org/2000/svg">
<g clip-path="url(#clip0)">
<path d="M214.685 402.828C189.856 402.828 169.656 423.028 169.656 447.857C169.656 472.686 189.856 492.886 214.685 492.886C239.514 492.886 259.714 472.686 259.714 447.857C259.713 423.028 239.513 402.828 214.685 402.828ZM214.685 467.742C203.719 467.742 194.798 458.82 194.798 447.855C194.798 436.889 203.72 427.968 214.685 427.968C225.65 427.968 234.572 436.89 234.572 447.855C234.572 458.822 225.65 467.742 214.685 467.742Z" fill="white"/>
<path d="M372.63 402.828C347.801 402.828 327.601 423.028 327.601 447.857C327.601 472.686 347.801 492.886 372.63 492.886C397.459 492.886 417.659 472.686 417.659 447.857C417.658 423.028 397.458 402.828 372.63 402.828ZM372.63 467.742C361.664 467.742 352.743 458.82 352.743 447.855C352.743 436.889 361.665 427.968 372.63 427.968C383.596 427.968 392.517 436.89 392.517 447.855C392.517 458.822 383.595 467.742 372.63 467.742Z" fill="white"/>
<path d="M383.716 165.755H203.567C196.624 165.755 190.996 171.383 190.996 178.326C190.996 185.269 196.625 190.897 203.567 190.897H383.716C390.659 190.897 396.287 185.269 396.287 178.326C396.287 171.382 390.659 165.755 383.716 165.755Z" fill="white"/>
<path d="M373.911 231.035H213.373C206.43 231.035 200.802 236.663 200.802 243.606C200.802 250.549 206.43 256.177 213.373 256.177H373.91C380.853 256.177 386.481 250.549 386.481 243.606C386.481 236.664 380.853 231.035 373.911 231.035Z" fill="white"/>
<path d="M506.341 109.744C501.547 103.86 494.443 100.486 486.852 100.486H95.278L87.37 62.097C85.719 54.089 80.257 47.365 72.756 44.108L17.579 20.158C11.209 17.391 3.80602 20.314 1.04302 26.682C-1.72298 33.052 1.20002 40.456 7.56702 43.219L62.745 67.17L123.571 362.431C125.967 374.059 136.323 382.499 148.196 382.499H449.362C456.305 382.499 461.933 376.871 461.933 369.928C461.933 362.985 456.305 357.357 449.362 357.357H148.197L140.798 321.441H451.69C463.562 321.441 473.919 313.001 476.314 301.373L511.477 130.698C513.008 123.266 511.136 115.627 506.341 109.744ZM451.69 296.301H135.619L100.458 125.627L486.851 125.628L451.69 296.301Z" fill="white"/>
</g>
<defs>
<clipPath id="clip0">
<rect width="511.999" height="511.999" fill="white"/>
</clipPath>
</defs>
</svg>
