<svg width="389" height="224" viewBox="0 0 389 224" fill="none" xmlns="http://www.w3.org/2000/svg">
<path d="M181.091 68.8006C181.102 68.8158 181.115 68.8287 181.126 68.8439C180.713 68.2245 180.721 68.2381 181.091 68.8006Z" fill="#FDFDFD"/>
<path d="M181.091 68.8006C176.521 62.2437 166.541 62.2566 161.998 68.8439L112.126 143.993L89.5816 113.934C85.0271 107.785 75.9174 107.785 71.3629 113.934L2.28692 205.782C-0.218038 209.197 -0.673484 213.752 1.1483 217.623C3.19781 221.495 7.0691 224 11.3958 224H283.829C282.399 221.85 186.884 77.5892 181.091 68.8006Z" fill="#FDFDFD"/>
<path d="M386.59 206.236L249.442 5.08136C245.115 -1.29413 234.64 -1.29413 230.314 5.08136L197.937 53.7268C202.638 59.4131 230.858 103.646 311.163 223.999H377.253C381.352 223.999 385.222 221.721 387.273 218.078C389.323 214.208 389.095 209.88 386.59 206.236Z" fill="#FDFDFD"/>
</svg>
